<svg version="1.1" viewBox="0.0 0.0 1024.0 768.0" fill="none" stroke="none" stroke-linecap="square" stroke-miterlimit="10" xmlns:xlink="http://www.w3.org/1999/xlink" xmlns="http://www.w3.org/2000/svg"><clipPath id="p.0"><path d="m0 0l1024.0 0l0 768.0l-1024.0 0l0 -768.0z" clip-rule="nonzero"/></clipPath><g clip-path="url(#p.0)"><path fill="#000000" fill-opacity="0.0" d="m0 0l1024.0 0l0 768.0l-1024.0 0z" fill-rule="evenodd"/><path fill="#000000" d="m266.5955 62.27034l298.9921 0l0 86.110245l-298.9921 0z" fill-rule="evenodd"/><path stroke="#000000" stroke-width="0.9448818897637795" stroke-linejoin="round" stroke-linecap="butt" d="m266.5955 62.27034l298.9921 0l0 86.110245l-298.9921 0z" fill-rule="evenodd"/><path fill="#ffffff" d="m347.80444 105.58543q0 -1.8125 0.8125 -3.25q0.828125 -1.4375 2.25 -2.234375q1.421875 -0.8125 3.1875 -0.8125q2.0625 0 3.609375 1.0625q1.546875 1.0625 2.171875 2.921875l-2.84375 0q-0.421875 -0.875 -1.1875 -1.3125q-0.765625 -0.4375 -1.765625 -0.4375q-1.078125 0 -1.921875 0.5q-0.828125 0.5 -1.296875 1.421875q-0.46875 0.90625 -0.46875 2.140625q0 1.21875 0.46875 2.140625q0.46875 0.921875 1.296875 1.4375q0.84375 0.5 1.921875 0.5q1.0 0 1.765625 -0.453125q0.765625 -0.453125 1.1875 -1.328125l2.84375 0q-0.625 1.890625 -2.171875 2.9375q-1.53125 1.046875 -3.609375 1.046875q-1.765625 0 -3.1875 -0.796875q-1.421875 -0.8125 -2.25 -2.234375q-0.8125 -1.4375 -0.8125 -3.25zm19.848572 6.296875q-1.71875 0 -3.171875 -0.8125q-1.4375 -0.8125 -2.296875 -2.25q-0.84375 -1.4375 -0.84375 -3.25q0 -1.796875 0.84375 -3.234375q0.859375 -1.4375 2.296875 -2.25q1.453125 -0.8125 3.171875 -0.8125q1.75 0 3.1875 0.8125q1.4375 0.8125 2.265625 2.25q0.84375 1.4375 0.84375 3.234375q0 1.8125 -0.84375 3.25q-0.828125 1.4375 -2.28125 2.25q-1.4375 0.8125 -3.171875 0.8125zm0 -2.203125q1.109375 0 1.953125 -0.5q0.859375 -0.5 1.328125 -1.4375q0.484375 -0.9375 0.484375 -2.171875q0 -1.234375 -0.484375 -2.15625q-0.46875 -0.921875 -1.328125 -1.40625q-0.84375 -0.5 -1.953125 -0.5q-1.109375 0 -1.96875 0.5q-0.84375 0.484375 -1.328125 1.40625q-0.46875 0.921875 -0.46875 2.15625q0 1.234375 0.46875 2.171875q0.484375 0.9375 1.328125 1.4375q0.859375 0.5 1.96875 0.5zm21.538818 -10.21875l0 12.296875l-2.46875 0l0 -8.0l-3.296875 8.0l-1.859375 0l-3.3125 -8.0l0 8.0l-2.46875 0l0 -12.296875l2.796875 0l3.921875 9.140625l3.90625 -9.140625l2.78125 0zm15.84494 0l0 12.296875l-2.46875 0l0 -8.0l-3.296875 8.0l-1.859375 0l-3.3125 -8.0l0 8.0l-2.46875 0l0 -12.296875l2.796875 0l3.921875 9.140625l3.90625 -9.140625l2.78125 0zm4.9074707 0l0 12.296875l-2.46875 0l0 -12.296875l2.46875 0zm6.6810303 12.421875q-1.296875 0 -2.328125 -0.4375q-1.03125 -0.453125 -1.625 -1.28125q-0.59375 -0.828125 -0.609375 -1.953125l2.640625 0q0.046875 0.765625 0.53125 1.203125q0.484375 0.4375 1.328125 0.4375q0.875 0 1.359375 -0.40625q0.5 -0.421875 0.5 -1.09375q0 -0.546875 -0.34375 -0.890625q-0.328125 -0.359375 -0.828125 -0.5625q-0.5 -0.203125 -1.390625 -0.453125q-1.203125 -0.34375 -1.953125 -0.6875q-0.734375 -0.34375 -1.28125 -1.03125q-0.53125 -0.703125 -0.53125 -1.875q0 -1.09375 0.546875 -1.890625q0.546875 -0.8125 1.53125 -1.25q0.984375 -0.4375 2.25 -0.4375q1.90625 0 3.09375 0.9375q1.1875 0.921875 1.3125 2.578125l-2.703125 0q-0.046875 -0.640625 -0.546875 -1.046875q-0.5 -0.421875 -1.328125 -0.421875q-0.71875 0 -1.15625 0.375q-0.4375 0.375 -0.4375 1.078125q0 0.484375 0.328125 0.8125q0.328125 0.328125 0.8125 0.53125q0.484375 0.203125 1.375 0.46875q1.1875 0.34375 1.9375 0.703125q0.765625 0.359375 1.3125 1.0625q0.546875 0.703125 0.546875 1.84375q0 0.984375 -0.515625 1.84375q-0.5 0.84375 -1.484375 1.34375q-0.984375 0.5 -2.34375 0.5zm10.733673 0q-1.296875 0 -2.328125 -0.4375q-1.03125 -0.453125 -1.625 -1.28125q-0.59375 -0.828125 -0.609375 -1.953125l2.640625 0q0.046875 0.765625 0.53125 1.203125q0.484375 0.4375 1.328125 0.4375q0.875 0 1.359375 -0.40625q0.5 -0.421875 0.5 -1.09375q0 -0.546875 -0.34375 -0.890625q-0.328125 -0.359375 -0.828125 -0.5625q-0.5 -0.203125 -1.390625 -0.453125q-1.203125 -0.34375 -1.953125 -0.6875q-0.734375 -0.34375 -1.28125 -1.03125q-0.53125 -0.703125 -0.53125 -1.875q0 -1.09375 0.546875 -1.890625q0.546875 -0.8125 1.53125 -1.25q0.984375 -0.4375 2.25 -0.4375q1.90625 0 3.09375 0.9375q1.1875 0.921875 1.3125 2.578125l-2.703125 0q-0.046875 -0.640625 -0.546875 -1.046875q-0.5 -0.421875 -1.328125 -0.421875q-0.71875 0 -1.15625 0.375q-0.4375 0.375 -0.4375 1.078125q0 0.484375 0.328125 0.8125q0.328125 0.328125 0.8125 0.53125q0.484375 0.203125 1.375 0.46875q1.1875 0.34375 1.9375 0.703125q0.765625 0.359375 1.3125 1.0625q0.546875 0.703125 0.546875 1.84375q0 0.984375 -0.515625 1.84375q-0.5 0.84375 -1.484375 1.34375q-0.984375 0.5 -2.34375 0.5zm8.952454 -12.421875l0 12.296875l-2.46875 0l0 -12.296875l2.46875 0zm8.134155 12.421875q-1.71875 0 -3.171875 -0.8125q-1.4375 -0.8125 -2.296875 -2.25q-0.84375 -1.4375 -0.84375 -3.25q0 -1.796875 0.84375 -3.234375q0.859375 -1.4375 2.296875 -2.25q1.453125 -0.8125 3.171875 -0.8125q1.75 0 3.1875 0.8125q1.4375 0.8125 2.265625 2.25q0.84375 1.4375 0.84375 3.234375q0 1.8125 -0.84375 3.25q-0.828125 1.4375 -2.28125 2.25q-1.4375 0.8125 -3.171875 0.8125zm0 -2.203125q1.109375 0 1.953125 -0.5q0.859375 -0.5 1.328125 -1.4375q0.484375 -0.9375 0.484375 -2.171875q0 -1.234375 -0.484375 -2.15625q-0.46875 -0.921875 -1.328125 -1.40625q-0.84375 -0.5 -1.953125 -0.5q-1.109375 0 -1.96875 0.5q-0.84375 0.484375 -1.328125 1.40625q-0.46875 0.921875 -0.46875 2.15625q0 1.234375 0.46875 2.171875q0.484375 0.9375 1.328125 1.4375q0.859375 0.5 1.96875 0.5zm18.648193 2.078125l-2.46875 0l-5.578125 -8.4375l0 8.4375l-2.46875 0l0 -12.3125l2.46875 0l5.578125 8.453125l0 -8.453125l2.46875 0l0 12.3125zm4.9075623 -10.3125l0 3.09375l4.140625 0l0 1.953125l-4.140625 0l0 3.25l4.671875 0l0 2.015625l-7.140625 0l0 -12.3125l7.140625 0l0 2.0l-4.671875 0zm13.251556 10.3125l-2.71875 -4.796875l-1.15625 0l0 4.796875l-2.46875 0l0 -12.296875l4.609375 0q1.4375 0 2.4375 0.5q1.0 0.5 1.5 1.359375q0.515625 0.84375 0.515625 1.90625q0 1.21875 -0.71875 2.203125q-0.703125 0.96875 -2.09375 1.34375l2.953125 4.984375l-2.859375 0zm-3.875 -6.640625l2.0625 0q1.0 0 1.484375 -0.484375q0.5 -0.484375 0.5 -1.359375q0 -0.84375 -0.5 -1.296875q-0.484375 -0.46875 -1.484375 -0.46875l-2.0625 0l0 3.609375z" fill-rule="nonzero"/><path fill="#1c398e" d="m266.5955 197.42014l298.9921 0l0 86.11023l-298.9921 0z" fill-rule="evenodd"/><path stroke="#000000" stroke-width="0.9448818897637795" stroke-linejoin="round" stroke-linecap="butt" d="m266.5955 197.42014l298.9921 0l0 86.11023l-298.9921 0z" fill-rule="evenodd"/><path fill="#ffffff" d="m378.082 234.61021q1.9375 0 3.40625 0.765625q1.484375 0.75 2.28125 2.15625q0.796875 1.390625 0.796875 3.234375q0 1.859375 -0.796875 3.25q-0.796875 1.375 -2.28125 2.140625q-1.46875 0.75 -3.40625 0.75l-4.296875 0l0 -12.296875l4.296875 0zm-0.09375 10.203125q1.953125 0 3.0 -1.0625q1.0625 -1.0625 1.0625 -2.984375q0 -1.90625 -1.0625 -2.984375q-1.046875 -1.09375 -3.0 -1.09375l-1.734375 0l0 8.125l1.734375 0zm10.902832 -10.203125l0 12.296875l-2.46875 0l0 -12.296875l2.46875 0zm8.77478 12.296875l-2.71875 -4.796875l-1.15625 0l0 4.796875l-2.46875 0l0 -12.296875l4.609375 0q1.4375 0 2.4375 0.5q1.0 0.5 1.5 1.359375q0.515625 0.84375 0.515625 1.90625q0 1.21875 -0.71875 2.203125q-0.703125 0.96875 -2.09375 1.34375l2.953125 4.984375l-2.859375 0zm-3.875 -6.640625l2.0625 0q1.0 0 1.484375 -0.484375q0.5 -0.484375 0.5 -1.359375q0 -0.84375 -0.5 -1.296875q-0.484375 -0.46875 -1.484375 -0.46875l-2.0625 0l0 3.609375zm11.297668 -3.671875l0 3.09375l4.140625 0l0 1.953125l-4.140625 0l0 3.25l4.671875 0l0 2.015625l-7.140625 0l0 -12.3125l7.140625 0l0 2.0l-4.671875 0zm6.2984314 4.140625q0 -1.8125 0.8125 -3.25q0.828125 -1.4375 2.25 -2.234375q1.421875 -0.8125 3.1875 -0.8125q2.0625 0 3.609375 1.0625q1.546875 1.0625 2.171875 2.921875l-2.84375 0q-0.421875 -0.875 -1.1875 -1.3125q-0.765625 -0.4375 -1.765625 -0.4375q-1.078125 0 -1.921875 0.5q-0.828125 0.5 -1.296875 1.421875q-0.46875 0.90625 -0.46875 2.140625q0 1.21875 0.46875 2.140625q0.46875 0.921875 1.296875 1.4375q0.84375 0.5 1.921875 0.5q1.0 0 1.765625 -0.453125q0.765625 -0.453125 1.1875 -1.328125l2.84375 0q-0.625 1.890625 -2.171875 2.9375q-1.53125 1.046875 -3.609375 1.046875q-1.765625 0 -3.1875 -0.796875q-1.421875 -0.8125 -2.25 -2.234375q-0.8125 -1.4375 -0.8125 -3.25zm22.520447 -6.125l0 1.984375l-3.28125 0l0 10.3125l-2.46875 0l0 -10.3125l-3.28125 0l0 -1.984375l9.03125 0zm7.4978027 12.421875q-1.71875 0 -3.171875 -0.8125q-1.4375 -0.8125 -2.296875 -2.25q-0.84375 -1.4375 -0.84375 -3.25q0 -1.796875 0.84375 -3.234375q0.859375 -1.4375 2.296875 -2.25q1.453125 -0.8125 3.171875 -0.8125q1.75 0 3.1875 0.8125q1.4375 0.8125 2.265625 2.25q0.84375 1.4375 0.84375 3.234375q0 1.8125 -0.84375 3.25q-0.828125 1.4375 -2.28125 2.25q-1.4375 0.8125 -3.171875 0.8125zm0 -2.203125q1.109375 0 1.953125 -0.5q0.859375 -0.5 1.328125 -1.4375q0.484375 -0.9375 0.484375 -2.171875q0 -1.234375 -0.484375 -2.15625q-0.46875 -0.921875 -1.328125 -1.40625q-0.84375 -0.5 -1.953125 -0.5q-1.109375 0 -1.96875 0.5q-0.84375 0.484375 -1.328125 1.40625q-0.46875 0.921875 -0.46875 2.15625q0 1.234375 0.46875 2.171875q0.484375 0.9375 1.328125 1.4375q0.859375 0.5 1.96875 0.5zm14.476318 2.078125l-2.71875 -4.796875l-1.15625 0l0 4.796875l-2.46875 0l0 -12.296875l4.609375 0q1.4375 0 2.4375 0.5q1.0 0.5 1.5 1.359375q0.515625 0.84375 0.515625 1.90625q0 1.21875 -0.71875 2.203125q-0.703125 0.96875 -2.09375 1.34375l2.953125 4.984375l-2.859375 0zm-3.875 -6.640625l2.0625 0q1.0 0 1.484375 -0.484375q0.5 -0.484375 0.5 -1.359375q0 -0.84375 -0.5 -1.296875q-0.484375 -0.46875 -1.484375 -0.46875l-2.0625 0l0 3.609375z" fill-rule="nonzero"/><path fill="#009689" d="m266.5955 332.56995l298.9921 0l0 86.11023l-298.9921 0z" fill-rule="evenodd"/><path stroke="#000000" stroke-width="0.9448818897637795" stroke-linejoin="round" stroke-linecap="butt" d="m266.5955 332.56995l298.9921 0l0 86.11023l-298.9921 0z" fill-rule="evenodd"/><path fill="#ffffff" d="m341.0256 373.46313q-0.421875 -0.78125 -1.171875 -1.1875q-0.734375 -0.40625 -1.71875 -0.40625q-1.09375 0 -1.9375 0.5q-0.84375 0.484375 -1.328125 1.40625q-0.46875 0.90625 -0.46875 2.109375q0 1.234375 0.484375 2.15625q0.484375 0.90625 1.34375 1.40625q0.859375 0.5 2.015625 0.5q1.40625 0 2.296875 -0.75q0.90625 -0.75 1.1875 -2.09375l-4.234375 0l0 -1.890625l6.671875 0l0 2.15625q-0.25 1.28125 -1.0625 2.375q-0.8125 1.09375 -2.09375 1.765625q-1.265625 0.65625 -2.859375 0.65625q-1.78125 0 -3.21875 -0.796875q-1.4375 -0.8125 -2.265625 -2.234375q-0.8125 -1.4375 -0.8125 -3.25q0 -1.8125 0.8125 -3.25q0.828125 -1.4375 2.265625 -2.234375q1.4375 -0.8125 3.203125 -0.8125q2.078125 0 3.609375 1.015625q1.53125 1.015625 2.125 2.859375l-2.84375 0zm7.442322 -1.71875l0 3.09375l4.140625 0l0 1.953125l-4.140625 0l0 3.25l4.671875 0l0 2.015625l-7.140625 0l0 -12.3125l7.140625 0l0 2.0l-4.671875 0zm17.423431 10.3125l-2.46875 0l-5.578125 -8.4375l0 8.4375l-2.46875 0l0 -12.3125l2.46875 0l5.578125 8.453125l0 -8.453125l2.46875 0l0 12.3125zm4.9075623 -10.3125l0 3.09375l4.140625 0l0 1.953125l-4.140625 0l0 3.25l4.671875 0l0 2.015625l-7.140625 0l0 -12.3125l7.140625 0l0 2.0l-4.671875 0zm13.251556 10.3125l-2.71875 -4.796875l-1.15625 0l0 4.796875l-2.46875 0l0 -12.296875l4.609375 0q1.4375 0 2.4375 0.5q1.0 0.5 1.5 1.359375q0.515625 0.84375 0.515625 1.90625q0 1.21875 -0.71875 2.203125q-0.703125 0.96875 -2.09375 1.34375l2.953125 4.984375l-2.859375 0zm-3.875 -6.640625l2.0625 0q1.0 0 1.484375 -0.484375q0.5 -0.484375 0.5 -1.359375q0 -0.84375 -0.5 -1.296875q-0.484375 -0.46875 -1.484375 -0.46875l-2.0625 0l0 3.609375zm16.375793 4.296875l-4.90625 0l-0.8125 2.34375l-2.59375 0l4.421875 -12.3125l2.875 0l4.421875 12.3125l-2.59375 0l-0.8125 -2.34375zm-0.671875 -1.96875l-1.78125 -5.15625l-1.78125 5.15625l3.5625 0zm8.213318 2.359375l4.046875 0l0 1.953125l-6.515625 0l0 -12.296875l2.46875 0l0 10.34375zm23.222198 -10.34375l0 12.296875l-2.46875 0l0 -8.0l-3.296875 8.0l-1.859375 0l-3.3125 -8.0l0 8.0l-2.46875 0l0 -12.296875l2.796875 0l3.921875 9.140625l3.90625 -9.140625l2.78125 0zm9.985596 9.953125l-4.90625 0l-0.8125 2.34375l-2.59375 0l4.421875 -12.3125l2.875 0l4.421875 12.3125l-2.59375 0l-0.8125 -2.34375zm-0.671875 -1.96875l-1.78125 -5.15625l-1.78125 5.15625l3.5625 0zm16.260193 4.3125l-2.46875 0l-5.578125 -8.4375l0 8.4375l-2.46875 0l0 -12.3125l2.46875 0l5.578125 8.453125l0 -8.453125l2.46875 0l0 12.3125zm9.985687 -2.34375l-4.90625 0l-0.8125 2.34375l-2.59375 0l4.421875 -12.3125l2.875 0l4.421875 12.3125l-2.59375 0l-0.8125 -2.34375zm-0.671875 -1.96875l-1.78125 -5.15625l-1.78125 5.15625l3.5625 0zm14.307068 -4.28125q-0.421875 -0.78125 -1.171875 -1.1875q-0.734375 -0.40625 -1.71875 -0.40625q-1.09375 0 -1.9375 0.5q-0.84375 0.484375 -1.328125 1.40625q-0.46875 0.90625 -0.46875 2.109375q0 1.234375 0.484375 2.15625q0.484375 0.90625 1.34375 1.40625q0.859375 0.5 2.015625 0.5q1.40625 0 2.296875 -0.75q0.90625 -0.75 1.1875 -2.09375l-4.234375 0l0 -1.890625l6.671875 0l0 2.15625q-0.25 1.28125 -1.0625 2.375q-0.8125 1.09375 -2.09375 1.765625q-1.265625 0.65625 -2.859375 0.65625q-1.78125 0 -3.21875 -0.796875q-1.4375 -0.8125 -2.265625 -2.234375q-0.8125 -1.4375 -0.8125 -3.25q0 -1.8125 0.8125 -3.25q0.828125 -1.4375 2.265625 -2.234375q1.4375 -0.8125 3.203125 -0.8125q2.078125 0 3.609375 1.015625q1.53125 1.015625 2.125 2.859375l-2.84375 0zm7.442322 -1.71875l0 3.09375l4.140625 0l0 1.953125l-4.140625 0l0 3.25l4.671875 0l0 2.015625l-7.140625 0l0 -12.3125l7.140625 0l0 2.0l-4.671875 0zm13.251556 10.3125l-2.71875 -4.796875l-1.15625 0l0 4.796875l-2.46875 0l0 -12.296875l4.609375 0q1.4375 0 2.4375 0.5q1.0 0.5 1.5 1.359375q0.515625 0.84375 0.515625 1.90625q0 1.21875 -0.71875 2.203125q-0.703125 0.96875 -2.09375 1.34375l2.953125 4.984375l-2.859375 0zm-3.875 -6.640625l2.0625 0q1.0 0 1.484375 -0.484375q0.5 -0.484375 0.5 -1.359375q0 -0.84375 -0.5 -1.296875q-0.484375 -0.46875 -1.484375 -0.46875l-2.0625 0l0 3.609375z" fill-rule="nonzero"/><path fill="#009689" d="m638.1562 332.56995l298.99213 0l0 86.11023l-298.99213 0z" fill-rule="evenodd"/><path stroke="#000000" stroke-width="0.9448818897637795" stroke-linejoin="round" stroke-linecap="butt" d="m638.1562 332.56995l298.99213 0l0 86.11023l-298.99213 0z" fill-rule="evenodd"/><path fill="#ffffff" d="m758.6237 369.76l0 1.984375l-5.125 0l0 3.15625l3.921875 0l0 1.953125l-3.921875 0l0 5.203125l-2.46875 0l0 -12.296875l7.59375 0zm4.2162476 0l0 12.296875l-2.46875 0l0 -12.296875l2.46875 0zm12.946655 12.296875l-2.46875 0l-5.578125 -8.4375l0 8.4375l-2.46875 0l0 -12.3125l2.46875 0l5.578125 8.453125l0 -8.453125l2.46875 0l0 12.3125zm9.985718 -2.34375l-4.90625 0l-0.8125 2.34375l-2.59375 0l4.421875 -12.3125l2.875 0l4.421875 12.3125l-2.59375 0l-0.8125 -2.34375zm-0.671875 -1.96875l-1.78125 -5.15625l-1.78125 5.15625l3.5625 0zm16.260193 4.3125l-2.46875 0l-5.578125 -8.4375l0 8.4375l-2.46875 0l0 -12.3125l2.46875 0l5.578125 8.453125l0 -8.453125l2.46875 0l0 12.3125zm1.8294067 -6.171875q0 -1.8125 0.8125 -3.25q0.828125 -1.4375 2.25 -2.234375q1.421875 -0.8125 3.1875 -0.8125q2.0625 0 3.609375 1.0625q1.546875 1.0625 2.171875 2.921875l-2.84375 0q-0.421875 -0.875 -1.1875 -1.3125q-0.765625 -0.4375 -1.765625 -0.4375q-1.078125 0 -1.921875 0.5q-0.828125 0.5 -1.296875 1.421875q-0.46875 0.90625 -0.46875 2.140625q0 1.21875 0.46875 2.140625q0.46875 0.921875 1.296875 1.4375q0.84375 0.5 1.921875 0.5q1.0 0 1.765625 -0.453125q0.765625 -0.453125 1.1875 -1.328125l2.84375 0q-0.625 1.890625 -2.171875 2.9375q-1.53125 1.046875 -3.609375 1.046875q-1.765625 0 -3.1875 -0.796875q-1.421875 -0.8125 -2.25 -2.234375q-0.8125 -1.4375 -0.8125 -3.25zm16.614197 -4.140625l0 3.09375l4.140625 0l0 1.953125l-4.140625 0l0 3.25l4.671875 0l0 2.015625l-7.140625 0l0 -12.3125l7.140625 0l0 2.0l-4.671875 0z" fill-rule="nonzero"/><path fill="#073763" d="m266.5955 476.0945l298.9921 0l0 86.11026l-298.9921 0z" fill-rule="evenodd"/><path stroke="#000000" stroke-width="0.9448818897637795" stroke-linejoin="round" stroke-linecap="butt" d="m266.5955 476.0945l298.9921 0l0 86.11026l-298.9921 0z" fill-rule="evenodd"/><path fill="#ffffff" d="m340.5682 517.0815q0 0.984375 -0.46875 1.859375q-0.46875 0.859375 -1.46875 1.390625q-0.984375 0.53125 -2.5 0.53125l-2.0625 0l0 4.71875l-2.46875 0l0 -12.296875l4.53125 0q1.421875 0 2.421875 0.5q1.015625 0.484375 1.515625 1.34375q0.5 0.859375 0.5 1.953125zm-4.546875 1.78125q1.015625 0 1.515625 -0.46875q0.5 -0.46875 0.5 -1.3125q0 -1.796875 -2.015625 -1.796875l-1.953125 0l0 3.578125l1.953125 0zm12.637939 6.71875l-2.71875 -4.796875l-1.15625 0l0 4.796875l-2.46875 0l0 -12.296875l4.609375 0q1.4375 0 2.4375 0.5q1.0 0.5 1.5 1.359375q0.515625 0.84375 0.515625 1.90625q0 1.21875 -0.71875 2.203125q-0.703125 0.96875 -2.09375 1.34375l2.953125 4.984375l-2.859375 0zm-3.875 -6.640625l2.0625 0q1.0 0 1.484375 -0.484375q0.5 -0.484375 0.5 -1.359375q0 -0.84375 -0.5 -1.296875q-0.484375 -0.46875 -1.484375 -0.46875l-2.0625 0l0 3.609375zm14.532074 6.765625q-1.71875 0 -3.171875 -0.8125q-1.4375 -0.8125 -2.296875 -2.25q-0.84375 -1.4375 -0.84375 -3.25q0 -1.796875 0.84375 -3.234375q0.859375 -1.4375 2.296875 -2.25q1.453125 -0.8125 3.171875 -0.8125q1.75 0 3.1875 0.8125q1.4375 0.8125 2.265625 2.25q0.84375 1.4375 0.84375 3.234375q0 1.8125 -0.84375 3.25q-0.828125 1.4375 -2.28125 2.25q-1.4375 0.8125 -3.171875 0.8125zm0 -2.203125q1.109375 0 1.953125 -0.5q0.859375 -0.5 1.328125 -1.4375q0.484375 -0.9375 0.484375 -2.171875q0 -1.234375 -0.484375 -2.15625q-0.46875 -0.921875 -1.328125 -1.40625q-0.84375 -0.5 -1.953125 -0.5q-1.109375 0 -1.96875 0.5q-0.84375 0.484375 -1.328125 1.40625q-0.46875 0.921875 -0.46875 2.15625q0 1.234375 0.46875 2.171875q0.484375 0.9375 1.328125 1.4375q0.859375 0.5 1.96875 0.5zm15.304443 -10.21875l0 8.625q0 1.796875 -1.046875 2.796875q-1.03125 1.0 -2.78125 1.0q-1.765625 0 -2.84375 -1.015625q-1.078125 -1.03125 -1.078125 -2.859375l2.46875 0q0.015625 0.78125 0.375 1.234375q0.359375 0.4375 1.046875 0.4375q0.671875 0 1.015625 -0.421875q0.359375 -0.421875 0.359375 -1.171875l0 -8.625l2.484375 0zm5.34317 1.984375l0 3.09375l4.140625 0l0 1.953125l-4.140625 0l0 3.25l4.671875 0l0 2.015625l-7.140625 0l0 -12.3125l7.140625 0l0 2.0l-4.671875 0zm6.2984314 4.140625q0 -1.8125 0.8125 -3.25q0.828125 -1.4375 2.25 -2.234375q1.421875 -0.8125 3.1875 -0.8125q2.0625 0 3.609375 1.0625q1.546875 1.0625 2.171875 2.921875l-2.84375 0q-0.421875 -0.875 -1.1875 -1.3125q-0.765625 -0.4375 -1.765625 -0.4375q-1.078125 0 -1.921875 0.5q-0.828125 0.5 -1.296875 1.421875q-0.46875 0.90625 -0.46875 2.140625q0 1.21875 0.46875 2.140625q0.46875 0.921875 1.296875 1.4375q0.84375 0.5 1.921875 0.5q1.0 0 1.765625 -0.453125q0.765625 -0.453125 1.1875 -1.328125l2.84375 0q-0.625 1.890625 -2.171875 2.9375q-1.53125 1.046875 -3.609375 1.046875q-1.765625 0 -3.1875 -0.796875q-1.421875 -0.8125 -2.25 -2.234375q-0.8125 -1.4375 -0.8125 -3.25zm22.520447 -6.125l0 1.984375l-3.28125 0l0 10.3125l-2.46875 0l0 -10.3125l-3.28125 0l0 -1.984375l9.03125 0zm19.395721 0l0 12.296875l-2.46875 0l0 -8.0l-3.296875 8.0l-1.859375 0l-3.3125 -8.0l0 8.0l-2.46875 0l0 -12.296875l2.796875 0l3.921875 9.140625l3.90625 -9.140625l2.78125 0zm9.985565 9.953125l-4.90625 0l-0.8125 2.34375l-2.59375 0l4.421875 -12.3125l2.875 0l4.421875 12.3125l-2.59375 0l-0.8125 -2.34375zm-0.671875 -1.96875l-1.78125 -5.15625l-1.78125 5.15625l3.5625 0zm16.260193 4.3125l-2.46875 0l-5.578125 -8.4375l0 8.4375l-2.46875 0l0 -12.3125l2.46875 0l5.578125 8.453125l0 -8.453125l2.46875 0l0 12.3125zm9.985687 -2.34375l-4.90625 0l-0.8125 2.34375l-2.59375 0l4.421875 -12.3125l2.875 0l4.421875 12.3125l-2.59375 0l-0.8125 -2.34375zm-0.671875 -1.96875l-1.78125 -5.15625l-1.78125 5.15625l3.5625 0zm14.307068 -4.28125q-0.421875 -0.78125 -1.171875 -1.1875q-0.734375 -0.40625 -1.71875 -0.40625q-1.09375 0 -1.9375 0.5q-0.84375 0.484375 -1.328125 1.40625q-0.46875 0.90625 -0.46875 2.109375q0 1.234375 0.484375 2.15625q0.484375 0.90625 1.34375 1.40625q0.859375 0.5 2.015625 0.5q1.40625 0 2.296875 -0.75q0.90625 -0.75 1.1875 -2.09375l-4.234375 0l0 -1.890625l6.671875 0l0 2.15625q-0.25 1.28125 -1.0625 2.375q-0.8125 1.09375 -2.09375 1.765625q-1.265625 0.65625 -2.859375 0.65625q-1.78125 0 -3.21875 -0.796875q-1.4375 -0.8125 -2.265625 -2.234375q-0.8125 -1.4375 -0.8125 -3.25q0 -1.8125 0.8125 -3.25q0.828125 -1.4375 2.265625 -2.234375q1.4375 -0.8125 3.203125 -0.8125q2.078125 0 3.609375 1.015625q1.53125 1.015625 2.125 2.859375l-2.84375 0zm7.442322 -1.71875l0 3.09375l4.140625 0l0 1.953125l-4.140625 0l0 3.25l4.671875 0l0 2.015625l-7.140625 0l0 -12.3125l7.140625 0l0 2.0l-4.671875 0zm13.251556 10.3125l-2.71875 -4.796875l-1.15625 0l0 4.796875l-2.46875 0l0 -12.296875l4.609375 0q1.4375 0 2.4375 0.5q1.0 0.5 1.5 1.359375q0.515625 0.84375 0.515625 1.90625q0 1.21875 -0.71875 2.203125q-0.703125 0.96875 -2.09375 1.34375l2.953125 4.984375l-2.859375 0zm-3.875 -6.640625l2.0625 0q1.0 0 1.484375 -0.484375q0.5 -0.484375 0.5 -1.359375q0 -0.84375 -0.5 -1.296875q-0.484375 -0.46875 -1.484375 -0.46875l-2.0625 0l0 3.609375z" fill-rule="nonzero"/><path fill="#0b5394" d="m20.46063 619.6191l298.99213 0l0 86.11029l-298.99213 0z" fill-rule="evenodd"/><path stroke="#000000" stroke-width="0.9448818897637795" stroke-linejoin="round" stroke-linecap="butt" d="m20.46063 619.6191l298.99213 0l0 86.11029l-298.99213 0z" fill-rule="evenodd"/><path fill="#ffffff" d="m108.95557 660.5123q-0.421875 -0.78125 -1.171875 -1.1875q-0.734375 -0.40625 -1.71875 -0.40625q-1.09375 0 -1.9375 0.5q-0.84375 0.484375 -1.328125 1.40625q-0.46875 0.90625 -0.46875 2.109375q0 1.234375 0.484375 2.15625q0.484375 0.90625 1.34375 1.40625q0.859375 0.5 2.015625 0.5q1.40625 0 2.296875 -0.75q0.90625 -0.75 1.1875 -2.09375l-4.234375 0l0 -1.890625l6.671875 0l0 2.15625q-0.25 1.28125 -1.0625 2.375q-0.8125 1.09375 -2.09375 1.765625q-1.265625 0.65625 -2.859375 0.65625q-1.78125 0 -3.21875 -0.796875q-1.4375 -0.8125 -2.265625 -2.234375q-0.8125 -1.4375 -0.8125 -3.25q0 -1.8125 0.8125 -3.25q0.828125 -1.4375 2.265625 -2.234375q1.4375 -0.8125 3.203125 -0.8125q2.078125 0 3.609375 1.015625q1.53125 1.015625 2.125 2.859375l-2.84375 0zm7.442322 -1.71875l0 3.09375l4.140625 0l0 1.953125l-4.140625 0l0 3.25l4.671875 0l0 2.015625l-7.140625 0l0 -12.3125l7.140625 0l0 2.0l-4.671875 0zm17.423431 10.3125l-2.46875 0l-5.578125 -8.4375l0 8.4375l-2.46875 0l0 -12.3125l2.46875 0l5.578125 8.453125l0 -8.453125l2.46875 0l0 12.3125zm4.9075623 -10.3125l0 3.09375l4.140625 0l0 1.953125l-4.140625 0l0 3.25l4.671875 0l0 2.015625l-7.140625 0l0 -12.3125l7.140625 0l0 2.0l-4.671875 0zm13.251556 10.3125l-2.71875 -4.796875l-1.15625 0l0 4.796875l-2.46875 0l0 -12.296875l4.609375 0q1.4375 0 2.4375 0.5q1.0 0.5 1.5 1.359375q0.515625 0.84375 0.515625 1.90625q0 1.21875 -0.71875 2.203125q-0.703125 0.96875 -2.09375 1.34375l2.953125 4.984375l-2.859375 0zm-3.875 -6.640625l2.0625 0q1.0 0 1.484375 -0.484375q0.5 -0.484375 0.5 -1.359375q0 -0.84375 -0.5 -1.296875q-0.484375 -0.46875 -1.484375 -0.46875l-2.0625 0l0 3.609375zm16.375809 4.296875l-4.90625 0l-0.8125 2.34375l-2.59375 0l4.421875 -12.3125l2.875 0l4.421875 12.3125l-2.59375 0l-0.8125 -2.34375zm-0.671875 -1.96875l-1.78125 -5.15625l-1.78125 5.15625l3.5625 0zm8.213318 2.359375l4.046875 0l0 1.953125l-6.515625 0l0 -12.296875l2.46875 0l0 10.34375zm17.362823 -0.390625l-4.90625 0l-0.8125 2.34375l-2.59375 0l4.421875 -12.3125l2.875 0l4.421875 12.3125l-2.59375 0l-0.8125 -2.34375zm-0.671875 -1.96875l-1.78125 -5.15625l-1.78125 5.15625l3.5625 0zm13.338318 -7.984375l0 1.984375l-5.125 0l0 3.15625l3.921875 0l0 1.953125l-3.921875 0l0 5.203125l-2.46875 0l0 -12.296875l7.59375 0zm9.341293 0l0 1.984375l-5.125 0l0 3.15625l3.921875 0l0 1.953125l-3.921875 0l0 5.203125l-2.46875 0l0 -12.296875l7.59375 0zm9.294418 9.953125l-4.90625 0l-0.8125 2.34375l-2.59375 0l4.421875 -12.3125l2.875 0l4.421875 12.3125l-2.59375 0l-0.8125 -2.34375zm-0.671875 -1.96875l-1.78125 -5.15625l-1.78125 5.15625l3.5625 0zm8.213318 -7.984375l0 12.296875l-2.46875 0l0 -12.296875l2.46875 0zm8.77478 12.296875l-2.71875 -4.796875l-1.15625 0l0 4.796875l-2.46875 0l0 -12.296875l4.609375 0q1.4375 0 2.4375 0.5q1.0 0.5 1.5 1.359375q0.515625 0.84375 0.515625 1.90625q0 1.21875 -0.71875 2.203125q-0.703125 0.96875 -2.09375 1.34375l2.953125 4.984375l-2.859375 0zm-3.875 -6.640625l2.0625 0q1.0 0 1.484375 -0.484375q0.5 -0.484375 0.5 -1.359375q0 -0.84375 -0.5 -1.296875q-0.484375 -0.46875 -1.484375 -0.46875l-2.0625 0l0 3.609375z" fill-rule="nonzero"/><path fill="#0b5394" d="m359.29843 619.6191l298.9921 0l0 86.11029l-298.9921 0z" fill-rule="evenodd"/><path stroke="#000000" stroke-width="0.9448818897637795" stroke-linejoin="round" stroke-linecap="butt" d="m359.29843 619.6191l298.9921 0l0 86.11029l-298.9921 0z" fill-rule="evenodd"/><path fill="#ffffff" d="m439.07925 656.8092l0 12.296875l-2.46875 0l0 -5.234375l-5.265625 0l0 5.234375l-2.46875 0l0 -12.296875l2.46875 0l0 5.046875l5.265625 0l0 -5.046875l2.46875 0zm4.8559265 0l0 7.609375q0 1.25 0.65625 1.921875q0.65625 0.65625 1.84375 0.65625q1.1875 0 1.84375 -0.65625q0.65625 -0.671875 0.65625 -1.921875l0 -7.609375l2.484375 0l0 7.59375q0 1.5625 -0.6875 2.65625q-0.671875 1.078125 -1.8125 1.625q-1.140625 0.546875 -2.53125 0.546875q-1.375 0 -2.5 -0.546875q-1.109375 -0.546875 -1.765625 -1.625q-0.640625 -1.09375 -0.640625 -2.65625l0 -7.59375l2.453125 0zm23.269073 0l0 12.296875l-2.46875 0l0 -8.0l-3.296875 8.0l-1.859375 0l-3.3125 -8.0l0 8.0l-2.46875 0l0 -12.296875l2.796875 0l3.921875 9.140625l3.90625 -9.140625l2.78125 0zm9.985565 9.953125l-4.90625 0l-0.8125 2.34375l-2.59375 0l4.421875 -12.3125l2.875 0l4.421875 12.3125l-2.59375 0l-0.8125 -2.34375zm-0.671875 -1.96875l-1.78125 -5.15625l-1.78125 5.15625l3.5625 0zm16.260193 4.3125l-2.46875 0l-5.578125 -8.4375l0 8.4375l-2.46875 0l0 -12.3125l2.46875 0l5.578125 8.453125l0 -8.453125l2.46875 0l0 12.3125zm12.977356 0l-2.71875 -4.796875l-1.15625 0l0 4.796875l-2.46875 0l0 -12.296875l4.609375 0q1.4375 0 2.4375 0.5q1.0 0.5 1.5 1.359375q0.515625 0.84375 0.515625 1.90625q0 1.21875 -0.71875 2.203125q-0.703125 0.96875 -2.09375 1.34375l2.953125 4.984375l-2.859375 0zm-3.875 -6.640625l2.0625 0q1.0 0 1.484375 -0.484375q0.5 -0.484375 0.5 -1.359375q0 -0.84375 -0.5 -1.296875q-0.484375 -0.46875 -1.484375 -0.46875l-2.0625 0l0 3.609375zm11.297668 -3.671875l0 3.09375l4.140625 0l0 1.953125l-4.140625 0l0 3.25l4.671875 0l0 2.015625l-7.140625 0l0 -12.3125l7.140625 0l0 2.0l-4.671875 0zm11.157837 10.4375q-1.296875 0 -2.328125 -0.4375q-1.03125 -0.453125 -1.625 -1.28125q-0.59375 -0.828125 -0.609375 -1.953125l2.640625 0q0.046875 0.765625 0.53125 1.203125q0.484375 0.4375 1.328125 0.4375q0.875 0 1.359375 -0.40625q0.5 -0.421875 0.5 -1.09375q0 -0.546875 -0.34375 -0.890625q-0.328125 -0.359375 -0.828125 -0.5625q-0.5 -0.203125 -1.390625 -0.453125q-1.203125 -0.34375 -1.953125 -0.6875q-0.734375 -0.34375 -1.28125 -1.03125q-0.53125 -0.703125 -0.53125 -1.875q0 -1.09375 0.546875 -1.890625q0.546875 -0.8125 1.53125 -1.25q0.984375 -0.4375 2.25 -0.4375q1.90625 0 3.09375 0.9375q1.1875 0.921875 1.3125 2.578125l-2.703125 0q-0.046875 -0.640625 -0.546875 -1.046875q-0.5 -0.421875 -1.328125 -0.421875q-0.71875 0 -1.15625 0.375q-0.4375 0.375 -0.4375 1.078125q0 0.484375 0.328125 0.8125q0.328125 0.328125 0.8125 0.53125q0.484375 0.203125 1.375 0.46875q1.1875 0.34375 1.9375 0.703125q0.765625 0.359375 1.3125 1.0625q0.546875 0.703125 0.546875 1.84375q0 0.984375 -0.515625 1.84375q-0.5 0.84375 -1.484375 1.34375q-0.984375 0.5 -2.34375 0.5zm12.186768 0q-1.71875 0 -3.171875 -0.8125q-1.4375 -0.8125 -2.296875 -2.25q-0.84375 -1.4375 -0.84375 -3.25q0 -1.796875 0.84375 -3.234375q0.859375 -1.4375 2.296875 -2.25q1.453125 -0.8125 3.171875 -0.8125q1.75 0 3.1875 0.8125q1.4375 0.8125 2.265625 2.25q0.84375 1.4375 0.84375 3.234375q0 1.8125 -0.84375 3.25q-0.828125 1.4375 -2.28125 2.25q-1.4375 0.8125 -3.171875 0.8125zm0 -2.203125q1.109375 0 1.953125 -0.5q0.859375 -0.5 1.328125 -1.4375q0.484375 -0.9375 0.484375 -2.171875q0 -1.234375 -0.484375 -2.15625q-0.46875 -0.921875 -1.328125 -1.40625q-0.84375 -0.5 -1.953125 -0.5q-1.109375 0 -1.96875 0.5q-0.84375 0.484375 -1.328125 1.40625q-0.46875 0.921875 -0.46875 2.15625q0 1.234375 0.46875 2.171875q0.484375 0.9375 1.328125 1.4375q0.859375 0.5 1.96875 0.5zm10.554443 -10.21875l0 7.609375q0 1.25 0.65625 1.921875q0.65625 0.65625 1.84375 0.65625q1.1875 0 1.84375 -0.65625q0.65625 -0.671875 0.65625 -1.921875l0 -7.609375l2.484375 0l0 7.59375q0 1.5625 -0.6875 2.65625q-0.671875 1.078125 -1.8125 1.625q-1.140625 0.546875 -2.53125 0.546875q-1.375 0 -2.5 -0.546875q-1.109375 -0.546875 -1.765625 -1.625q-0.640625 -1.09375 -0.640625 -2.65625l0 -7.59375l2.453125 0zm16.206604 12.296875l-2.71875 -4.796875l-1.15625 0l0 4.796875l-2.46875 0l0 -12.296875l4.609375 0q1.4375 0 2.4375 0.5q1.0 0.5 1.5 1.359375q0.515625 0.84375 0.515625 1.90625q0 1.21875 -0.71875 2.203125q-0.703125 0.96875 -2.09375 1.34375l2.953125 4.984375l-2.859375 0zm-3.875 -6.640625l2.0625 0q1.0 0 1.484375 -0.484375q0.5 -0.484375 0.5 -1.359375q0 -0.84375 -0.5 -1.296875q-0.484375 -0.46875 -1.484375 -0.46875l-2.0625 0l0 3.609375zm8.219543 0.46875q0 -1.8125 0.8125 -3.25q0.828125 -1.4375 2.25 -2.234375q1.421875 -0.8125 3.1875 -0.8125q2.0625 0 3.609375 1.0625q1.546875 1.0625 2.171875 2.921875l-2.84375 0q-0.421875 -0.875 -1.1875 -1.3125q-0.765625 -0.4375 -1.765625 -0.4375q-1.078125 0 -1.921875 0.5q-0.828125 0.5 -1.296875 1.421875q-0.46875 0.90625 -0.46875 2.140625q0 1.21875 0.46875 2.140625q0.46875 0.921875 1.296875 1.4375q0.84375 0.5 1.921875 0.5q1.0 0 1.765625 -0.453125q0.765625 -0.453125 1.1875 -1.328125l2.84375 0q-0.625 1.890625 -2.171875 2.9375q-1.53125 1.046875 -3.609375 1.046875q-1.765625 0 -3.1875 -0.796875q-1.421875 -0.8125 -2.25 -2.234375q-0.8125 -1.4375 -0.8125 -3.25zm16.614197 -4.140625l0 3.09375l4.140625 0l0 1.953125l-4.140625 0l0 3.25l4.671875 0l0 2.015625l-7.140625 0l0 -12.3125l7.140625 0l0 2.0l-4.671875 0z" fill-rule="nonzero"/><path fill="#0b5394" d="m704.5469 619.6191l298.99213 0l0 86.11029l-298.99213 0z" fill-rule="evenodd"/><path stroke="#000000" stroke-width="0.9448818897637795" stroke-linejoin="round" stroke-linecap="butt" d="m704.5469 619.6191l298.99213 0l0 86.11029l-298.99213 0z" fill-rule="evenodd"/><path fill="#ffffff" d="m774.9191 669.2311q-1.71875 0 -3.171875 -0.8125q-1.4375 -0.8125 -2.296875 -2.25q-0.84375 -1.4375 -0.84375 -3.25q0 -1.796875 0.84375 -3.234375q0.859375 -1.4375 2.296875 -2.25q1.453125 -0.8125 3.171875 -0.8125q1.75 0 3.1875 0.8125q1.4375 0.8125 2.265625 2.25q0.84375 1.4375 0.84375 3.234375q0 1.8125 -0.84375 3.25q-0.828125 1.4375 -2.28125 2.25q-1.4375 0.8125 -3.171875 0.8125zm0 -2.203125q1.109375 0 1.953125 -0.5q0.859375 -0.5 1.328125 -1.4375q0.484375 -0.9375 0.484375 -2.171875q0 -1.234375 -0.484375 -2.15625q-0.46875 -0.921875 -1.328125 -1.40625q-0.84375 -0.5 -1.953125 -0.5q-1.109375 0 -1.96875 0.5q-0.84375 0.484375 -1.328125 1.40625q-0.46875 0.921875 -0.46875 2.15625q0 1.234375 0.46875 2.171875q0.484375 0.9375 1.328125 1.4375q0.859375 0.5 1.96875 0.5zm17.101318 -6.421875q0 0.984375 -0.46875 1.859375q-0.46875 0.859375 -1.46875 1.390625q-0.984375 0.53125 -2.5 0.53125l-2.0625 0l0 4.71875l-2.46875 0l0 -12.296875l4.53125 0q1.421875 0 2.421875 0.5q1.015625 0.484375 1.515625 1.34375q0.5 0.859375 0.5 1.953125zm-4.546875 1.78125q1.015625 0 1.515625 -0.46875q0.5 -0.46875 0.5 -1.3125q0 -1.796875 -2.015625 -1.796875l-1.953125 0l0 3.578125l1.953125 0zm8.762939 -3.59375l0 3.09375l4.140625 0l0 1.953125l-4.140625 0l0 3.25l4.671875 0l0 2.015625l-7.140625 0l0 -12.3125l7.140625 0l0 2.0l-4.671875 0zm13.251526 10.3125l-2.71875 -4.796875l-1.15625 0l0 4.796875l-2.46875 0l0 -12.296875l4.609375 0q1.4375 0 2.4375 0.5q1.0 0.5 1.5 1.359375q0.515625 0.84375 0.515625 1.90625q0 1.21875 -0.71875 2.203125q-0.703125 0.96875 -2.09375 1.34375l2.953125 4.984375l-2.859375 0zm-3.875 -6.640625l2.0625 0q1.0 0 1.484375 -0.484375q0.5 -0.484375 0.5 -1.359375q0 -0.84375 -0.5 -1.296875q-0.484375 -0.46875 -1.484375 -0.46875l-2.0625 0l0 3.609375zm16.375854 4.296875l-4.90625 0l-0.8125 2.34375l-2.59375 0l4.421875 -12.3125l2.875 0l4.421875 12.3125l-2.59375 0l-0.8125 -2.34375zm-0.671875 -1.96875l-1.78125 -5.15625l-1.78125 5.15625l3.5625 0zm14.119568 -7.984375l0 1.984375l-3.28125 0l0 10.3125l-2.46875 0l0 -10.3125l-3.28125 0l0 -1.984375l9.03125 0zm4.2634277 0l0 12.296875l-2.46875 0l0 -12.296875l2.46875 0zm8.134155 12.421875q-1.71875 0 -3.171875 -0.8125q-1.4375 -0.8125 -2.296875 -2.25q-0.84375 -1.4375 -0.84375 -3.25q0 -1.796875 0.84375 -3.234375q0.859375 -1.4375 2.296875 -2.25q1.453125 -0.8125 3.171875 -0.8125q1.75 0 3.1875 0.8125q1.4375 0.8125 2.265625 2.25q0.84375 1.4375 0.84375 3.234375q0 1.8125 -0.84375 3.25q-0.828125 1.4375 -2.28125 2.25q-1.4375 0.8125 -3.171875 0.8125zm0 -2.203125q1.109375 0 1.953125 -0.5q0.859375 -0.5 1.328125 -1.4375q0.484375 -0.9375 0.484375 -2.171875q0 -1.234375 -0.484375 -2.15625q-0.46875 -0.921875 -1.328125 -1.40625q-0.84375 -0.5 -1.953125 -0.5q-1.109375 0 -1.96875 0.5q-0.84375 0.484375 -1.328125 1.40625q-0.46875 0.921875 -0.46875 2.15625q0 1.234375 0.46875 2.171875q0.484375 0.9375 1.328125 1.4375q0.859375 0.5 1.96875 0.5zm18.648193 2.078125l-2.46875 0l-5.578125 -8.4375l0 8.4375l-2.46875 0l0 -12.3125l2.46875 0l5.578125 8.453125l0 -8.453125l2.46875 0l0 12.3125zm9.985657 -2.34375l-4.90625 0l-0.8125 2.34375l-2.59375 0l4.421875 -12.3125l2.875 0l4.421875 12.3125l-2.59375 0l-0.8125 -2.34375zm-0.671875 -1.96875l-1.78125 -5.15625l-1.78125 5.15625l3.5625 0zm8.213318 2.359375l4.046875 0l0 1.953125l-6.515625 0l0 -12.296875l2.46875 0l0 10.34375zm14.112854 -10.34375q1.9375 0 3.40625 0.765625q1.484375 0.75 2.28125 2.15625q0.796875 1.390625 0.796875 3.234375q0 1.859375 -0.796875 3.25q-0.796875 1.375 -2.28125 2.140625q-1.46875 0.75 -3.40625 0.75l-4.296875 0l0 -12.296875l4.296875 0zm-0.09375 10.203125q1.953125 0 3.0 -1.0625q1.0625 -1.0625 1.0625 -2.984375q0 -1.90625 -1.0625 -2.984375q-1.046875 -1.09375 -3.0 -1.09375l-1.734375 0l0 8.125l1.734375 0zm10.902771 -8.21875l0 3.09375l4.140625 0l0 1.953125l-4.140625 0l0 3.25l4.671875 0l0 2.015625l-7.140625 0l0 -12.3125l7.140625 0l0 2.0l-4.671875 0zm15.876587 1.8125q0 0.984375 -0.46875 1.859375q-0.46875 0.859375 -1.46875 1.390625q-0.984375 0.53125 -2.5 0.53125l-2.0625 0l0 4.71875l-2.46875 0l0 -12.296875l4.53125 0q1.421875 0 2.421875 0.5q1.015625 0.484375 1.515625 1.34375q0.5 0.859375 0.5 1.953125zm-4.546875 1.78125q1.015625 0 1.515625 -0.46875q0.5 -0.46875 0.5 -1.3125q0 -1.796875 -2.015625 -1.796875l-1.953125 0l0 3.578125l1.953125 0zm14.669189 -5.578125l0 1.984375l-3.28125 0l0 10.3125l-2.46875 0l0 -10.3125l-3.28125 0l0 -1.984375l9.03125 0zm2.8884277 12.421875q-0.671875 0 -1.109375 -0.40625q-0.421875 -0.421875 -0.421875 -1.046875q0 -0.609375 0.421875 -1.015625q0.4375 -0.421875 1.109375 -0.421875q0.65625 0 1.078125 0.421875q0.421875 0.40625 0.421875 1.015625q0 0.625 -0.421875 1.046875q-0.421875 0.40625 -1.078125 0.40625z" fill-rule="nonzero"/><path fill="#000000" fill-opacity="0.0" d="m416.09155 148.38058l0 24.526047l0.06298828 0l0 24.51332" fill-rule="evenodd"/><path stroke="#000000" stroke-width="2.8346456692913384" stroke-linejoin="round" stroke-linecap="butt" d="m416.09155 148.38058l0 24.526047l0.06298828 0l0 24.51332" fill-rule="evenodd"/><path fill="#000000" fill-opacity="0.0" d="m565.5876 240.47525l222.0788 0l0 92.09448" fill-rule="evenodd"/><path stroke="#000000" stroke-width="2.8346456692913384" stroke-linejoin="round" stroke-linecap="butt" d="m565.5876 240.47525l222.0788 0l0 92.09448" fill-rule="evenodd"/><path fill="#000000" fill-opacity="0.0" d="m416.09155 283.53036l0 24.526062l0.06298828 0l0 24.513306" fill-rule="evenodd"/><path stroke="#000000" stroke-width="2.8346456692913384" stroke-linejoin="round" stroke-linecap="butt" d="m416.09155 283.53036l0 24.526062l0.06298828 0l0 24.513306" fill-rule="evenodd"/><path fill="#000000" fill-opacity="0.0" d="m416.09155 418.68018l0 28.70636l0.06298828 0l0 28.710968" fill-rule="evenodd"/><path stroke="#000000" stroke-width="2.8346456692913384" stroke-linejoin="round" stroke-linecap="butt" d="m416.09155 418.68018l0 28.70636l0.06298828 0l0 28.710968" fill-rule="evenodd"/><path fill="#000000" fill-opacity="0.0" d="m416.09155 562.2048l0 28.70636l-246.14174 0l0 28.710938" fill-rule="evenodd"/><path stroke="#000000" stroke-width="2.8346456692913384" stroke-linejoin="round" stroke-linecap="butt" d="m416.09155 562.2048l0 28.70636l-246.14174 0l0 28.710938" fill-rule="evenodd"/><path fill="#000000" fill-opacity="0.0" d="m416.09155 562.2048l0 28.70636l92.6929 0l0 28.710938" fill-rule="evenodd"/><path stroke="#000000" stroke-width="2.8346456692913384" stroke-linejoin="round" stroke-linecap="butt" d="m416.09155 562.2048l0 28.70636l92.6929 0l0 28.710938" fill-rule="evenodd"/><path fill="#000000" fill-opacity="0.0" d="m416.09155 562.2048l0 28.70636l437.95276 0l0 28.710938" fill-rule="evenodd"/><path stroke="#000000" stroke-width="2.8346456692913384" stroke-linejoin="round" stroke-linecap="butt" d="m416.09155 562.2048l0 28.70636l437.95276 0l0 28.710938" fill-rule="evenodd"/></g></svg>